<?xml version="1.0" encoding="utf-8"?>
<svg xmlns="http://www.w3.org/2000/svg" viewBox="0 0 800 600">
  <path fill="#01FF39" d="M399.6,48.5h0.4c134.9,0,244.3,109.4,244.3,244.3v13.6c0,134.9-109.4,244.3-244.3,244.3h-0.4c-134.9,0-244.3-109.4-244.3-244.3v-13.6C155.3,157.9,264.7,48.5,399.6,48.5z"/>
  <path fill="#041516" d="M504.3,237.5c-0.8,0.9-1.8,1.6-2.9,2c-1.1,0.5-2.3,0.7-3.5,0.7H271.4c-8,0-12.1-10-6.5-16l37.2-39.5c0.8-0.9,1.8-1.6,3-2.1c1.1-0.5,2.3-0.7,3.5-0.7h227.4c8.1,0,12.1,10.1,6.4,16.1L504.3,237.5z M504.3,414.1c-1.7,1.7-4,2.7-6.4,2.7H271.4c-8,0-12.1-9.8-6.5-15.6l37.2-38.6c0.8-0.9,1.9-1.6,3-2c1.1-0.5,2.3-0.7,3.5-0.7h227.4c8.1,0,12.1,9.9,6.4,15.7L504.3,414.1z M504.3,273.6c-1.7-1.7-4-2.7-6.4-2.7H271.4c-8,0-12.1,9.8-6.5,15.6l37.2,38.6c0.8,0.9,1.9-1.6,3-2c1.1-0.5,2.3-0.7,3.5-0.7h227.4c8.1,0,12.1-9.9,6.4-15.7L504.3,273.6z"/>
</svg>
